<svg xmlns="http://www.w3.org/2000/svg" viewBox="0 0 336.147 42.561">
<defs>
<clipPath id="a">
<path d="M0 93.543h314.646V0H0z"></path></clipPath></defs>
<path fill="transparent" d="M0 83.642h419.527V-41.082H0z"></path>
<g clip-path="url(#a)" transform="matrix(1.33333 0 0 -1.33333 -41.69 83.642)">
<path fill="#fff" d="M51.595 43.007l-5.43 13.043-5.446-13.043zM31.267 30.823v.874c1.213.137 2.121.589 2.727 1.363.606.77 1.648 2.907 3.127 6.403l9.838 23.269h.963l11.775-26.877c.783-1.775 1.41-2.876 1.878-3.296.47-.421 1.257-.707 2.363-.862v-.874H51.921v.874c1.373.124 2.261.273 2.66.45.401.176.601.61.601 1.299 0 .228-.077.638-.23 1.22-.156.584-.37 1.195-.649 1.838l-1.895 4.552H39.906c-1.229-3.095-1.964-4.984-2.202-5.667-.24-.684-.359-1.223-.359-1.62 0-.8.326-1.35.975-1.656.404-.185 1.168-.322 2.292-.416v-.874h-9.345M90.068 47.99c2.52 1.041 3.78 3.008 3.78 5.89 0 2.772-1.129 4.665-3.386 5.678-1.206.544-2.807.818-4.8.818-1.347 0-2.17-.098-2.472-.29-.3-.195-.452-.65-.452-1.362V46.98c3.417.117 5.861.453 7.33 1.01M73.785 31.697c1.834.171 2.978.525 3.43 1.067.45.541.676 1.801.676 3.781v20.532c0 1.66-.252 2.746-.757 3.262-.507.514-1.623.84-3.349.978v.875h13.18c2.746 0 5.031-.346 6.86-1.044 3.471-1.315 5.207-3.733 5.207-7.257 0-2.367-.77-4.184-2.309-5.45-1.54-1.269-3.63-2.103-6.275-2.505l9.774-11.989c.603-.733 1.206-1.27 1.81-1.606.601-.337 1.374-.55 2.32-.644v-.874h-7.647l-11.914 14.61-2.053-.137v-9.33c0-1.755.267-2.865.8-3.334.531-.47 1.691-.78 3.482-.935v-.874H73.785v.874m42.409 0c1.89.137 3.112.426 3.67.862.56.434.841 1.56.841 3.38v21.138c0 1.736-.28 2.855-.84 3.354-.559.499-1.78.794-3.67.886v.876h13.867v-.876c-1.889-.092-3.11-.387-3.67-.886-.56-.5-.84-1.618-.84-3.354V35.939c0-1.82.28-2.946.84-3.38.56-.436 1.781-.725 3.67-.862v-.874h-13.868v.874m45.456 11.31l-5.434 13.043-5.443-13.043zm-20.33-12.184v.874c1.211.137 2.12.589 2.725 1.363.608.77 1.65 2.907 3.127 6.403l9.84 23.269h.963l11.775-26.877c.781-1.775 1.41-2.876 1.878-3.296.467-.421 1.256-.707 2.362-.862v-.874h-12.019v.874c1.375.124 2.262.273 2.662.45.4.176.602.61.602 1.299 0 .228-.079.638-.232 1.22-.155.584-.37 1.195-.647 1.838l-1.895 4.552h-12.504c-1.228-3.095-1.962-4.984-2.2-5.667-.24-.684-.359-1.223-.359-1.62 0-.8.324-1.35.973-1.656.405-.185 1.168-.322 2.29-.416v-.874h-9.34m56.545 16.024v-3.762h-12.485v19.083h4.307V46.847zm4.198 15.321h4.307V43.085h-4.307zm15.564-19.083l-7.496 19.083h4.634l5.207-14.394 5.234 14.394h4.443l-7.579-19.083zm15.756 19.083h4.307V43.085h-4.307zm23.526-19.083l-9.243 12.24v-12.24h-4.116v19.083h3.926l9.27-12.268v12.268h4.087V43.085zm26.305 9.623v-7.333c-2.018-1.472-5.098-2.48-7.742-2.48-5.78 0-10.17 4.198-10.17 9.731 0 5.507 4.472 9.678 10.415 9.678 2.835 0 5.725-1.09 7.66-2.78l-2.426-3.082c-1.418 1.31-3.38 2.127-5.234 2.127-3.381 0-5.998-2.589-5.998-5.943 0-3.38 2.645-5.97 6.025-5.97 1.145 0 2.508.41 3.735 1.036v5.016zm-97.742-17.104h97.768v-4.793h-97.768z"></path></g></svg>